15_US_stride2.mot
nRows=167
nColumns=3

name 15_US_stride2.mot
datacolumns 3
datarows 167
range 0.340000 1.170000
endheader
time	soleus_l	med_gas_l
        0.3400000000	       30.3544507948	       31.7762571947	
        0.3450000000	       30.0874728649	       31.6459481011	
        0.3500000000	       29.9086615688	       31.4585033376	
        0.3550000000	       29.7401351097	       31.1836524504	
        0.3600000000	       29.5164793531	       30.7269227721	
        0.3650000000	       29.3090342242	       30.2087535427	
        0.3700000000	       29.1619987625	       29.7146968675	
        0.3750000000	       29.1116706716	       29.3805850393	
        0.3800000000	       29.0968373043	       29.1506881953	
        0.3850000000	       29.1363738015	       28.9479863911	
        0.3900000000	       29.2046696873	       28.8583342145	
        0.3950000000	       29.2741391129	       28.8188375393	
        0.4000000000	       29.2975477814	       28.7761338355	
        0.4050000000	       29.2936662302	       28.6842756684	
        0.4100000000	       29.2349164276	       28.5578545044	
        0.4150000000	       29.1138083470	       28.3528912132	
        0.4200000000	       28.9077634590	       28.0819116709	
        0.4250000000	       28.6476451544	       27.8316445223	
        0.4300000000	       28.3480707157	       27.6506737692	
        0.4350000000	       28.0671789949	       27.6108317217	
        0.4400000000	       27.8914261030	       27.6573903813	
        0.4450000000	       27.7657441351	       27.7960539721	
        0.4500000000	       27.6767257402	       28.0661470650	
        0.4550000000	       27.6911134227	       28.3463715233	
        0.4600000000	       27.7652529706	       28.5754608159	
        0.4650000000	       27.8848220078	       28.6546900003	
        0.4700000000	       27.9952846249	       28.6561605647	
        0.4750000000	       28.0754613541	       28.5346190143	
        0.4800000000	       28.1356170963	       28.3009010397	
        0.4850000000	       28.1357589679	       27.9795431591	
        0.4900000000	       28.0850426530	       27.6425047648	
        0.4950000000	       27.9825918669	       27.3549377469	
        0.5000000000	       27.8880011684	       27.1716955173	
        0.5050000000	       27.7602820146	       26.9737569927	
        0.5100000000	       27.6157326762	       26.7703398926	
        0.5150000000	       27.4833618782	       26.5666963399	
        0.5200000000	       27.3500660483	       26.3169669701	
        0.5250000000	       27.1910313575	       26.0075491374	
        0.5300000000	       27.0267978853	       25.7410851269	
        0.5350000000	       26.8107745996	       25.4713787616	
        0.5400000000	       26.4135721503	       25.1421862667	
        0.5450000000	       25.8862451748	       24.8913209853	
        0.5500000000	       25.2467477263	       24.7505138289	
        0.5550000000	       24.5433499321	       24.7382073876	
        0.5600000000	       23.9188736037	       24.7728872306	
        0.5650000000	       23.4334925007	       24.8570972173	
        0.5700000000	       22.8832009270	       24.9707694071	
        0.5750000000	       22.4186708349	       25.0613494564	
        0.5800000000	       22.0678557988	       25.0817443297	
        0.5850000000	       21.7873483263	       25.0429171918	
        0.5900000000	       21.5338389754	       24.9195778572	
        0.5950000000	       21.3365680938	       24.7997727457	
        0.6000000000	       21.0904831243	       24.6463069329	
        0.6050000000	       20.7579663698	       24.4551831503	
        0.6100000000	       20.4311685708	       24.2889590404	
        0.6150000000	       20.0753322678	       24.1190636436	
        0.6200000000	       19.7844562228	       23.9723119113	
        0.6250000000	       19.6078731665	       23.8669968716	
        0.6300000000	       19.5165838921	       23.7895314003	
        0.6350000000	       19.5017079510	       23.7178975489	
        0.6400000000	       19.5870436666	       23.7213440129	
        0.6450000000	       19.8026762377	       23.7812069226	
        0.6500000000	       20.0651982221	       23.9133404572	
        0.6550000000	       20.3140568464	       24.0649571301	
        0.6600000000	       20.6556648448	       24.2977179416	
        0.6650000000	       21.0098952523	       24.5626919442	
        0.6700000000	       21.3247738354	       24.8111648716	
        0.6750000000	       21.5870343095	       25.0212924848	
        0.6800000000	       21.7875070069	       25.1794746322	
        0.6850000000	       21.9082392495	       25.2712651093	
        0.6900000000	       22.0270807093	       25.3544711062	
        0.6950000000	       22.1724439194	       25.4435538386	
        0.7000000000	       22.3731865122	       25.5436260455	
        0.7050000000	       22.6571920992	       25.6625769644	
        0.7100000000	       23.0345961181	       25.8047384331	
        0.7150000000	       23.4733691163	       25.9597602905	
        0.7200000000	       23.9723034471	       26.1287410776	
        0.7250000000	       24.6609873495	       26.3555402599	
        0.7300000000	       25.3954176768	       26.5903256336	
        0.7350000000	       26.1046396357	       26.8060206782	
        0.7400000000	       26.7257322057	       26.9737384527	
        0.7450000000	       27.1848756271	       27.0602648896	
        0.7500000000	       27.4464315806	       27.0759600425	
        0.7550000000	       27.6692389732	       27.0452736671	
        0.7600000000	       27.8370898704	       26.9271598266	
        0.7650000000	       27.9645237689	       26.7549426644	
        0.7700000000	       28.1193687022	       26.5612752787	
        0.7750000000	       28.2917880678	       26.4212120759	
        0.7800000000	       28.5605801957	       26.2759876602	
        0.7850000000	       29.0092047879	       26.1241973608	
        0.7900000000	       29.5414932525	       26.0078344352	
        0.7950000000	       30.1117741693	       25.9165615022	
        0.8000000000	       30.6627445055	       25.8453645171	
        0.8050000000	       31.0565471089	       25.8171609602	
        0.8100000000	       31.3509547793	       25.8079056720	
        0.8150000000	       31.6658628913	       25.8650853262	
        0.8200000000	       31.8826543882	       26.0147037526	
        0.8250000000	       32.0165168238	       26.2700045528	
        0.8300000000	       32.0855387050	       26.6282762754	
        0.8350000000	       32.1072504868	       27.0282933870	
        0.8400000000	       32.0961910033	       27.3311603820	
        0.8450000000	       32.0684604305	       27.6647652042	
        0.8500000000	       32.0384606581	       27.9735149305	
        0.8550000000	       32.0320356808	       28.1935347183	
        0.8600000000	       32.0869225971	       28.3459823674	
        0.8650000000	       32.2215360519	       28.5062231996	
        0.8700000000	       32.3632064744	       28.6418822848	
        0.8750000000	       32.5252134140	       28.7936043777	
        0.8800000000	       32.7418677799	       29.0216516322	
        0.8850000000	       32.9044550074	       29.2309036169	
        0.8900000000	       32.9678856287	       29.4024190358	
        0.8950000000	       32.9406664762	       29.5230114129	
        0.9000000000	       32.8254100680	       29.5988846868	
        0.9050000000	       32.6616855605	       29.6487777285	
        0.9100000000	       32.3947848669	       29.7246183078	
        0.9150000000	       32.0681186545	       29.8271871679	
        0.9200000000	       31.7272289143	       29.9514457441	
        0.9250000000	       31.4186649582	       30.0669405862	
        0.9300000000	       31.2059328235	       30.1413827868	
        0.9350000000	       30.9953587109	       30.1451550000	
        0.9400000000	       30.8417266384	       30.0997238482	
        0.9450000000	       30.7839794557	       29.9302330781	
        0.9500000000	       30.8194509518	       29.6701631004	
        0.9550000000	       30.9677612632	       29.3736260647	
        0.9600000000	       31.1506530233	       29.1459122379	
        0.9650000000	       31.3895087871	       28.9352167634	
        0.9700000000	       31.7547439241	       28.7014380575	
        0.9750000000	       32.1235859172	       28.5208137162	
        0.9800000000	       32.4663213572	       28.3777355316	
        0.9850000000	       32.7309761163	       28.2863736857	
        0.9900000000	       32.8790626831	       28.2648274378	
        0.9950000000	       32.9513532665	       28.2895666116	
        1.0000000000	       32.9957148027	       28.3972438766	
        1.0050000000	       33.0295083639	       28.6062459358	
        1.0100000000	       33.0753876501	       28.8954485111	
        1.0150000000	       33.1589071734	       29.2338788183	
        1.0200000000	       33.2698963131	       29.5591738684	
        1.0250000000	       33.3598787384	       29.7832159861	
        1.0300000000	       33.4540420628	       30.0197919550	
        1.0350000000	       33.5386455179	       30.2910169888	
        1.0400000000	       33.5772512106	       30.5637911099	
        1.0450000000	       33.5618738323	       30.8951238661	
        1.0500000000	       33.5223884141	       31.2032710391	
        1.0550000000	       33.4463570651	       31.5719429847	
        1.0600000000	       33.3037395826	       32.1440153140	
        1.0650000000	       33.1265070201	       32.7525261113	
        1.0700000000	       32.9236685336	       33.3648251238	
        1.0750000000	       32.6989350384	       33.9624654791	
        1.0800000000	       32.5073702202	       34.4084798850	
        1.0850000000	       32.3675941150	       34.6922802538	
        1.0900000000	       32.2100075128	       34.9467106572	
        1.0950000000	       32.0819823912	       34.9981703978	
        1.1000000000	       31.9818238462	       34.9687642930	
        1.1050000000	       31.8918313012	       34.7644274937	
        1.1100000000	       31.7968035767	       34.4935496763	
        1.1150000000	       31.7054773106	       34.2615187654	
        1.1200000000	       31.5819424367	       33.9944913305	
        1.1250000000	       31.4059632406	       33.6820468411	
        1.1300000000	       31.2195985724	       33.3955687626	
        1.1350000000	       31.0354437463	       33.1210814681	
        1.1400000000	       30.8744461732	       32.8675242093	
        1.1450000000	       30.7662254607	       32.6880118043	
        1.1500000000	       30.6826562275	       32.5534897144	
        1.1550000000	       30.5774541492	       32.4181284055	
        1.1600000000	       30.4515714247	       32.3368897390	
        1.1650000000	       30.2652530279	       32.2745958844	
        1.1700000000	       30.0267729666	       32.2092507534	
